<svg width="117" height="31" viewBox="0 0 117 31" fill="none" xmlns="http://www.w3.org/2000/svg">
<g clip-path="url(#clip0_889_430)">
<path d="M15.5023 31C11.4113 31 7.48779 29.3751 4.59501 26.4828C1.70222 23.5904 0.0770874 19.6675 0.0770874 15.5771C0.0770874 11.4867 1.70222 7.56385 4.59501 4.6715C7.48779 1.77914 11.4113 0.154248 15.5023 0.154248C17.5325 0.108921 19.5496 0.490441 21.423 1.27421C23.2963 2.05797 24.9841 3.22647 26.377 4.70397C26.6087 5.02551 26.7667 5.3941 26.8398 5.78357C26.8524 5.98596 26.8205 6.1886 26.7463 6.37732C26.6722 6.56604 26.5575 6.73621 26.4105 6.87587C26.2634 7.01554 26.0876 7.1214 25.8952 7.18581C25.7029 7.25022 25.4987 7.27168 25.2972 7.24876C24.9659 7.31136 24.626 7.31136 24.2947 7.24876C21.9163 4.97986 18.7876 3.66277 15.5023 3.5473C12.1885 3.5473 9.01059 4.86348 6.66744 7.20628C4.32428 9.54909 3.00791 12.7266 3.00791 16.0398C2.96909 17.6764 3.27142 19.3032 3.89549 20.8166C4.51955 22.3301 5.45171 23.6971 6.63284 24.8308C7.77747 26.0241 9.15586 26.9687 10.6819 27.6056C12.2079 28.2424 13.8488 28.5579 15.5023 28.5323C17.0887 28.5549 18.6637 28.2596 20.1341 27.6636C21.6045 27.0676 22.9405 26.183 24.0634 25.0622V16.0398C24.0508 15.8374 24.0826 15.6348 24.1568 15.4461C24.231 15.2573 24.3456 15.0872 24.4927 14.9475C24.6397 14.8078 24.8156 14.702 25.0079 14.6376C25.2002 14.5731 25.4042 14.5517 25.6057 14.5746C25.8042 14.5495 26.0056 14.5701 26.1949 14.6349C26.3841 14.6996 26.5562 14.8068 26.6976 14.9482C26.839 15.0896 26.9461 15.2614 27.0109 15.4506C27.0757 15.6398 27.0963 15.8414 27.0712 16.0398V25.9104C27.1596 26.2388 27.1596 26.5846 27.0712 26.913C25.6861 28.4532 23.9355 29.6201 21.9808 30.306C19.892 30.9802 17.6865 31.2164 15.5023 31Z" fill="white"/>
<path d="M26.0685 5.62929C26.0685 6.09197 26.0684 6.32341 25.2972 6.32341H24.8344C22.2862 3.96169 18.9746 2.59343 15.5023 2.46769C11.984 2.46769 8.60988 3.86505 6.12209 6.35247C3.63429 8.83989 2.23661 12.2136 2.23661 15.7314C2.23661 19.2491 3.63429 22.6227 6.12209 25.1102C8.60988 27.5976 11.984 28.9949 15.5023 28.9949C17.1901 29.0205 18.8657 28.7059 20.4293 28.07C21.9929 27.434 23.4123 26.4898 24.6031 25.2935V15.7314C24.6031 15.2687 24.6031 15.0373 25.3744 15.0373C25.4685 15.0245 25.5644 15.0337 25.6545 15.0641C25.7445 15.0945 25.8262 15.1453 25.8934 15.2125C25.9605 15.2796 26.0113 15.3613 26.0417 15.4513C26.072 15.5413 26.0812 15.6372 26.0685 15.7314V25.602C26.1045 25.6874 26.1231 25.7791 26.1231 25.8718C26.1231 25.9645 26.1045 26.0563 26.0685 26.1418C24.7805 27.5622 23.1658 28.6474 21.3639 29.3035C19.5762 30.0383 17.6663 30.4307 15.7336 30.4601C11.8267 30.4601 8.07997 28.9084 5.31736 26.1462C2.55475 23.384 1.00256 19.6377 1.00256 15.7314C1.00256 11.825 2.55475 8.07861 5.31736 5.31641C8.07997 2.55421 11.8267 1.00249 15.7336 1.00249C17.6638 0.950596 19.5829 1.30863 21.3644 2.05303C23.1459 2.79743 24.7492 3.91124 26.0685 5.32088C26.0916 5.4224 26.0916 5.52777 26.0685 5.62929Z" fill="white"/>
<path d="M32.0073 31C31.8019 31.0111 31.5963 30.9788 31.4041 30.9053C31.2119 30.8317 31.0372 30.7185 30.8917 30.573C30.7462 30.4275 30.6329 30.2529 30.5594 30.0608C30.4858 29.8686 30.4536 29.6632 30.4647 29.4577V1.54221C30.4536 1.33675 30.4858 1.13133 30.5594 0.939168C30.6329 0.747006 30.7462 0.572459 30.8917 0.426962C31.0372 0.281466 31.2119 0.168239 31.4041 0.0946698C31.5963 0.0211002 31.8019 -0.0111833 32.0073 -5.23845e-05H41.2623C45.3533 -5.23845e-05 49.2768 1.62484 52.1696 4.51719C55.0624 7.40955 56.6875 11.3324 56.6875 15.4228C56.6875 19.5132 55.0624 23.4361 52.1696 26.3285C49.2768 29.2208 45.3533 30.8457 41.2623 30.8457L32.0073 31ZM41.2623 27.9925C42.9164 28.0228 44.5588 27.7094 46.0855 27.0722C47.6122 26.4351 48.99 25.488 50.1317 24.2909C52.449 21.9517 53.7491 18.7924 53.7491 15.4999C53.7491 12.2075 52.449 9.04813 50.1317 6.70886C48.99 5.51184 47.6122 4.56482 46.0855 3.92768C44.5588 3.29054 42.9164 2.97718 41.2623 3.00741H33.5497V27.9925H41.2623Z" fill="white"/>
<path d="M55.9933 15.5C55.9933 19.4063 54.4413 23.1528 51.6787 25.915C48.9161 28.6772 45.1691 30.2289 41.2622 30.2289H32.0072C31.903 30.2413 31.7972 30.2298 31.698 30.1955C31.5987 30.1611 31.5086 30.1047 31.4343 30.0305C31.3601 29.9563 31.3037 29.8661 31.2694 29.7669C31.235 29.6677 31.2235 29.5621 31.2359 29.4578V1.54231C31.2359 1.00251 31.236 0.77124 32.0072 0.77124H41.2622C45.1691 0.77124 48.9161 2.32296 51.6787 5.08516C54.4413 7.84735 55.9933 11.5937 55.9933 15.5ZM54.5279 15.5C54.5698 13.762 54.2485 12.0344 53.5845 10.4277C52.9205 8.82101 51.9283 7.37063 50.6716 6.16923C49.4592 4.90037 47.9975 3.89601 46.3782 3.21919C44.7589 2.54238 43.0171 2.20779 41.2622 2.23643H32.7013V28.7637H41.2622C43.0171 28.7923 44.7589 28.4578 46.3782 27.7809C47.9975 27.1041 49.4592 26.0998 50.6716 24.8309C51.9283 23.6295 52.9205 22.179 53.5845 20.5723C54.2485 18.9656 54.5698 17.238 54.5279 15.5Z" fill="white"/>
<path d="M60.8523 31C60.6499 31.0126 60.4472 30.9806 60.2584 30.9065C60.0697 30.8323 59.8994 30.7177 59.7597 30.5706C59.62 30.4236 59.5144 30.2478 59.45 30.0555C59.3855 29.8632 59.364 29.6592 59.3869 29.4577V1.54225C59.364 1.34077 59.3855 1.13677 59.45 0.944497C59.5144 0.752222 59.62 0.576363 59.7597 0.42935C59.8994 0.282337 60.0697 0.167708 60.2584 0.0935274C60.4472 0.0193473 60.6499 -0.012583 60.8523 -1.8052e-05H76.2775C76.4766 -0.000293979 76.6737 0.0400662 76.8567 0.118473C77.0397 0.19688 77.2047 0.311732 77.3418 0.45606C77.4789 0.600389 77.5852 0.77115 77.6541 0.957911C77.7231 1.14467 77.7534 1.34345 77.7429 1.54225C77.7541 1.73759 77.7238 1.93316 77.6541 2.11599C77.5845 2.29883 77.4769 2.46478 77.3385 2.60314C77.2001 2.74149 77.0342 2.84905 76.8513 2.91872C76.6684 2.98839 76.4728 3.01863 76.2775 3.00744H62.2405V13.9577H73.1153C73.3208 13.9465 73.5263 13.9788 73.7185 14.0524C73.9107 14.126 74.0852 14.2392 74.2307 14.3847C74.3762 14.5302 74.4895 14.7047 74.563 14.8969C74.6366 15.0891 74.669 15.2945 74.6579 15.4999C74.6705 15.7023 74.6384 15.9051 74.5642 16.0938C74.49 16.2825 74.3754 16.4527 74.2283 16.5924C74.0813 16.732 73.9054 16.8378 73.7131 16.9022C73.5208 16.9666 73.3168 16.9881 73.1153 16.9651H62.2405V27.9926H76.2775C76.4728 27.9814 76.6684 28.0116 76.8513 28.0813C77.0342 28.151 77.2001 28.2585 77.3385 28.3969C77.4769 28.5352 77.5845 28.7012 77.6541 28.884C77.7238 29.0668 77.7541 29.2624 77.7429 29.4577C77.7534 29.6565 77.7231 29.8553 77.6541 30.0421C77.5852 30.2288 77.4789 30.3996 77.3418 30.5439C77.2047 30.6883 77.0397 30.8031 76.8567 30.8815C76.6737 30.9599 76.4766 31.0003 76.2775 31H60.8523Z" fill="white"/>
<path d="M77.1258 29.4578C77.1258 29.9205 77.1259 30.2289 76.4317 30.2289H61.0065C60.5438 30.2289 60.3124 30.229 60.3124 29.4578V1.54231C60.3124 1.00251 60.3124 0.77124 61.0065 0.77124H76.4317C76.8945 0.77124 77.1258 0.77117 77.1258 1.54231C77.1386 1.63645 77.1294 1.73224 77.099 1.82224C77.0686 1.91225 77.0179 1.99406 76.9507 2.06123C76.8835 2.1284 76.8018 2.17923 76.7118 2.20961C76.6218 2.23998 76.5259 2.24916 76.4317 2.23643H61.6237V14.7289H73.2695C73.8094 14.7289 74.0408 14.7289 74.0408 15.5C74.0408 16.2712 74.0408 16.1941 73.2695 16.1941H61.6237V28.7637H76.4317C76.5259 28.751 76.6218 28.7601 76.7118 28.7905C76.8018 28.8209 76.8835 28.8717 76.9507 28.9389C77.0179 29.0061 77.0686 29.0878 77.099 29.1778C77.1294 29.2678 77.1386 29.3637 77.1258 29.4578Z" fill="white"/>
<path d="M86.6896 31C85.0546 31.0056 83.451 30.5514 82.062 29.689C80.6246 28.9205 79.4244 27.7739 78.5912 26.3731C78.5912 26.3731 78.5912 25.679 78.5912 25.5248C78.5909 25.3257 78.6314 25.1287 78.7098 24.9458C78.7883 24.7628 78.903 24.5976 79.0474 24.4605C79.1917 24.3234 79.3626 24.2171 79.5494 24.1482C79.7362 24.0793 79.935 24.0491 80.1338 24.0596C80.5838 24.2144 81.0019 24.4497 81.3679 24.7537L81.9848 25.7561C82.5712 26.4739 83.3138 27.0484 84.1558 27.436C84.9978 27.8235 85.9171 28.0139 86.8437 27.9925C88.3908 27.8209 89.8202 27.0848 90.8584 25.9252C91.8967 24.7656 92.4707 23.264 92.4707 21.7077C92.4707 20.1513 91.8967 18.6496 90.8584 17.49C89.8202 16.3304 88.3908 15.5944 86.8437 15.4228C85.8287 15.4287 84.8225 15.2341 83.8828 14.8504C82.9431 14.4666 82.0885 13.9013 81.3679 13.1866C80.6531 12.466 80.0874 11.6114 79.7036 10.6719C79.3198 9.73235 79.1253 8.72627 79.1312 7.71139C79.1397 5.68837 79.943 3.74974 81.3679 2.3134C82.2006 1.47929 83.2134 0.847112 84.3286 0.465438C85.4438 0.0837646 86.6317 -0.0373177 87.801 0.111613C88.9703 0.260543 90.0899 0.675494 91.0738 1.32453C92.0577 1.97356 92.8797 2.83945 93.4767 3.85567C93.5214 4.11078 93.5214 4.37175 93.4767 4.62686C93.4893 4.82925 93.4572 5.03189 93.383 5.22061C93.3088 5.40933 93.1942 5.5795 93.0471 5.71916C92.9001 5.85883 92.7242 5.96457 92.5319 6.02898C92.3396 6.09339 92.1356 6.11497 91.9341 6.09205C91.4713 6.09205 91.0856 6.09201 90.3915 5.08953C89.9897 4.5696 89.5233 4.10307 89.0033 3.70141C88.2957 3.23173 87.4615 2.9896 86.6124 3.0074C85.9917 2.99697 85.3753 3.11158 84.7998 3.34429C84.2243 3.57699 83.7013 3.92309 83.2624 4.36199C82.8234 4.80089 82.4774 5.32353 82.2446 5.89896C82.0119 6.47439 81.8974 7.09078 81.9078 7.71139C81.8901 8.33566 81.9969 8.95715 82.222 9.5397C82.4471 10.1223 82.7859 10.6542 83.2188 11.1044C83.6653 11.5477 84.1949 11.8984 84.7772 12.1366C85.3595 12.3748 85.9832 12.4957 86.6124 12.4924C87.8217 12.4591 89.0243 12.6825 90.141 13.1477C91.2577 13.613 92.2631 14.3095 93.0909 15.1915C93.9608 16.0393 94.6522 17.0525 95.1243 18.1717C95.5963 19.2908 95.8396 20.4931 95.8396 21.7077C95.8396 22.9222 95.5963 24.1246 95.1243 25.2437C94.6522 26.3628 93.9608 27.3761 93.0909 28.2239C92.2643 29.0918 91.2718 29.7847 90.1721 30.2616C89.0724 30.7385 87.8882 30.9896 86.6896 31Z" fill="white"/>
<path d="M95.1735 21.7462C95.115 23.9775 94.2022 26.1012 92.6237 27.6794C91.0452 29.2577 88.9212 30.1702 86.6896 30.2287C85.1965 30.2377 83.7293 29.8377 82.4475 29.072C81.1438 28.3353 80.0541 27.2723 79.2853 25.9874C79.2492 25.8353 79.2492 25.6768 79.2853 25.5247C79.2853 25.062 79.2853 24.8307 80.0566 24.8307C80.8279 24.8307 80.4424 24.8307 80.6737 25.2163C80.8452 25.5703 81.0519 25.9061 81.2907 26.2187C81.9157 26.9765 82.6928 27.5947 83.5719 28.0333C84.4509 28.4718 85.4123 28.721 86.3937 28.7646C87.3751 28.8082 88.3549 28.6453 89.2694 28.2865C90.1839 27.9277 91.0129 27.3809 91.7027 26.6815C92.3724 26.0315 92.9026 25.2517 93.2606 24.3898C93.6187 23.528 93.797 22.6022 93.785 21.669C93.765 19.8141 93.0191 18.0408 91.7072 16.7291C90.3953 15.4174 88.6217 14.6716 86.7665 14.6516C85.8521 14.6619 84.945 14.4895 84.0981 14.1444C83.2513 13.7993 82.4819 13.2885 81.8353 12.6419C81.1887 11.9954 80.6779 11.2261 80.3327 10.3794C79.9875 9.53271 79.8149 8.62559 79.8252 7.71131C79.8252 5.87062 80.5566 4.10531 81.8584 2.80376C83.1601 1.5022 84.9256 0.771053 86.7665 0.771053C87.9841 0.724401 89.1898 1.02615 90.2418 1.64085C91.2937 2.25555 92.1484 3.15763 92.7054 4.24118C92.7054 4.24118 92.7053 4.93518 91.9341 4.93518C91.1628 4.93518 91.4713 4.93525 91.0086 4.16411C90.5329 3.60916 89.9887 3.11682 89.389 2.69891C88.5695 2.14426 87.602 1.84872 86.6124 1.85065C85.8806 1.83561 85.1536 1.97161 84.4768 2.25025C83.8001 2.52889 83.1879 2.94412 82.6789 3.46999C81.7141 4.5224 81.1791 5.89813 81.1791 7.32571C81.1791 8.75329 81.7141 10.129 82.6789 11.1814C83.1879 11.7073 83.8001 12.1225 84.4768 12.4012C85.1536 12.6798 85.8806 12.8159 86.6124 12.8009C87.7215 12.7607 88.8264 12.9604 89.8513 13.3863C90.8762 13.8122 91.797 14.4541 92.551 15.2685C93.4673 16.0655 94.1825 17.0677 94.6382 18.1933C95.0939 19.319 95.2773 20.5363 95.1735 21.7462Z" fill="white"/>
<path d="M115.457 31.0001C115.068 30.927 114.699 30.7691 114.378 30.5374L101.498 17.6593V29.4578C101.521 29.6593 101.499 29.8633 101.435 30.0556C101.37 30.2479 101.265 30.4237 101.125 30.5707C100.985 30.7178 100.815 30.8324 100.626 30.9066C100.438 30.9807 100.235 31.0127 100.032 31.0001C99.8268 31.0112 99.6214 30.979 99.4292 30.9054C99.2371 30.8318 99.0624 30.7186 98.9168 30.5731C98.7713 30.4276 98.6581 30.253 98.5845 30.0609C98.5109 29.8687 98.4787 29.6633 98.4899 29.4578V1.46527C98.4896 1.26619 98.5299 1.06909 98.6083 0.886109C98.6867 0.703126 98.8017 0.538079 98.946 0.400967C99.0904 0.263855 99.261 0.157604 99.4478 0.0886781C99.6346 0.019752 99.8334 -0.0104032 100.032 7.46204e-05C100.228 -0.0111156 100.423 0.0191223 100.606 0.0887958C100.789 0.158469 100.955 0.266028 101.093 0.404379C101.232 0.542731 101.339 0.708806 101.409 0.89164C101.479 1.07447 101.509 1.26993 101.498 1.46527V13.3408L114.378 0.462742C114.699 0.231129 115.068 0.0731791 115.457 7.46204e-05C115.663 -0.0110563 115.869 0.0212272 116.061 0.0947968C116.253 0.168366 116.428 0.281593 116.573 0.427089C116.719 0.572586 116.832 0.747134 116.905 0.939295C116.979 1.13146 117.011 1.33688 117 1.54234C116.913 1.9274 116.756 2.29328 116.537 2.62194L103.734 15.5L116.691 28.3782C116.91 28.7069 117.067 29.0728 117.154 29.4578C117.169 29.6777 117.133 29.898 117.051 30.1023C116.968 30.3066 116.841 30.4897 116.678 30.6379C116.515 30.7862 116.32 30.8958 116.109 30.9585C115.898 31.0212 115.675 31.0354 115.457 31.0001Z" fill="white"/>
<path d="M116.229 1.54238C116.282 1.69206 116.282 1.85535 116.229 2.00504L102.732 15.5001L116.229 28.918C116.287 29.0932 116.287 29.2827 116.229 29.4579C116.241 29.5621 116.23 29.6678 116.195 29.767C116.161 29.8662 116.104 29.9563 116.03 30.0306C115.956 30.1048 115.866 30.1612 115.767 30.1955C115.667 30.2299 115.562 30.2414 115.457 30.229C115.282 30.2877 115.093 30.2877 114.918 30.229L100.958 16.2713C100.899 16.0961 100.899 15.9067 100.958 15.7315V29.6892C100.958 30.229 100.958 30.4603 100.264 30.4603C100.159 30.4727 100.054 30.4614 99.9545 30.427C99.8553 30.3926 99.7651 30.3361 99.6909 30.2619C99.6166 30.1877 99.56 30.0975 99.5257 29.9983C99.4913 29.8991 99.4801 29.7935 99.4925 29.6892V1.69664C99.4925 1.23395 99.4923 1.00264 100.264 1.00264C100.358 0.989904 100.454 0.999087 100.544 1.02946C100.634 1.05984 100.715 1.11055 100.783 1.17772C100.85 1.2449 100.901 1.3267 100.931 1.41671C100.961 1.50671 100.971 1.6025 100.958 1.69664V15.7315C100.922 15.6461 100.903 15.5543 100.903 15.4616C100.903 15.3689 100.922 15.2771 100.958 15.1917L114.918 1.23397C115.093 1.17519 115.282 1.17519 115.457 1.23397C115.602 1.19535 115.755 1.2045 115.894 1.26009C116.033 1.31568 116.151 1.41468 116.229 1.54238Z" fill="white"/>
</g>
<defs>
<clipPath id="clip0_889_430">
<rect width="117" height="31" fill="white"/>
</clipPath>
</defs>
</svg>
