<svg width="64" height="67" viewBox="0 0 64 67" fill="none" xmlns="http://www.w3.org/2000/svg">
<g clip-path="url(#clip0_889_466)">
<path d="M0.87339 25.8193L31.595 1.19946C31.595 1.19946 57.1271 20.4581 62.3166 25.8193C62.3166 40.1853 62.3166 63.7121 62.3166 63.7121L0.87339 65.6379V25.8193Z" stroke="#364166" stroke-width="3" stroke-miterlimit="10" stroke-linecap="round" stroke-linejoin="round"/>
<path d="M1.28854 26.7562C10.6815 37.5307 20.8528 51.4282 31.595 57.1537C37.8742 50.9597 45.1913 46.0149 48.9796 41.4865C53.1831 36.4897 59.5142 30.1916 62.3165 25.8193" stroke="#364166" stroke-width="3" stroke-miterlimit="10" stroke-linecap="round" stroke-linejoin="round"/>
<path d="M1.28854 64.5449C5.12874 62.1506 15.1963 50.231 18.31 47.6805" stroke="#364166" stroke-width="3" stroke-miterlimit="10" stroke-linecap="round" stroke-linejoin="round"/>
<path d="M61.9533 62.7752C57.0752 58.0907 51.1073 48.0449 46.5406 44.0891" stroke="#364166" stroke-width="3" stroke-miterlimit="10" stroke-linecap="round" stroke-linejoin="round"/>
<path d="M3.98706 10.4644C3.98706 13.5874 4.6098 30.66 4.6098 30.66C4.6098 30.66 9.3841 36.3855 11.8231 39.1963C18.1543 46.5354 24.7449 53.4581 31.5431 57.1016C37.8223 50.9076 45.1395 45.9628 48.9278 41.4344C51.5744 38.2594 58.0093 31.2325 58.0093 31.2325C58.0093 31.2325 58.5801 13.8997 57.179 10.4124H3.98706V10.4644Z" fill="#FCCE67" stroke="#364166" stroke-width="3" stroke-miterlimit="10" stroke-linecap="round" stroke-linejoin="round"/>
<path d="M34.9681 27.4849C37.2515 22.5402 26.2498 25.8193 26.1979 30.2957C26.0941 36.4897 35.3314 28.6301 36.3174 25.5591C35.4352 26.8083 31.8025 32.2215 33.5151 33.731C36.2136 36.0733 42.5447 27.7973 42.0258 25.2468C40.1576 15.8777 23.4994 21.395 20.9047 27.537C19.2441 31.4408 20.0225 36.9581 24.0184 39.1963C28.2737 41.5386 33.3075 38.6237 37.0439 36.5417" stroke="#364166" stroke-width="3" stroke-miterlimit="10" stroke-linecap="round" stroke-linejoin="round"/>
</g>
<defs>
<clipPath id="clip0_889_466">
<rect width="63" height="66" fill="white" transform="translate(0.0949707 0.418701)"/>
</clipPath>
</defs>
</svg>
