<svg width="98" height="74" viewBox="0 0 98 74" fill="none" xmlns="http://www.w3.org/2000/svg">
<g clip-path="url(#clip0_889_451)">
<path d="M8.47864 2.62664C10.9011 1.85532 12.3326 1.084 14.3146 2.73683C16.5719 4.66513 17.2876 7.97079 18.3888 10.5602C19.2696 12.6538 19.6 13.7006 20.0404 15.9044C20.6461 18.7693 18.0584 19.3202 16.1314 20.1466" fill="#FCCE67"/>
<path d="M8.47864 2.62664C10.9011 1.85532 12.3326 1.084 14.3146 2.73683C16.5719 4.66513 17.2876 7.97079 18.3888 10.5602C19.2696 12.6538 19.6 13.7006 20.0404 15.9044C20.6461 18.7693 18.0584 19.3202 16.1314 20.1466" stroke="#364166" stroke-width="3" stroke-miterlimit="10" stroke-linecap="round" stroke-linejoin="round"/>
<path d="M38.8146 45.6003C43.0539 41.9089 45.5315 46.7572 47.8989 50.2833C50.927 54.8561 52.7989 59.0433 49.8258 61.3022" fill="#FCCE67"/>
<path d="M38.8146 45.6003C43.0539 41.9089 45.5315 46.7572 47.8989 50.2833C50.927 54.8561 52.7989 59.0433 49.8258 61.3022" stroke="#364166" stroke-width="3" stroke-miterlimit="10" stroke-linecap="round" stroke-linejoin="round"/>
<path d="M16.1865 20.0916C14.3146 16.7859 13.0483 13.5353 11.6719 10.7255C10.3505 7.97082 8.5337 5.76705 8.47864 2.51648C7.10223 3.12252 5.61572 4.05912 4.67976 5.2161C3.08313 7.30969 2.09212 11.0561 1.4865 13.5904C0.770774 16.6206 0.660662 19.6508 1.04605 22.681C1.98201 29.2372 5.17527 35.2976 8.47864 40.9172C10.2404 43.8923 12.0573 46.9225 13.9843 49.7874C18.2786 56.1784 24.1696 61.4123 31.5472 64.1671C36.8326 66.1504 46.5225 64.8833 49.7708 61.3021C50.1011 59.0984 38.7595 46.0961 38.6494 46.1512C35.7314 48.2999 30.8314 50.7791 27.1977 50.6689C21.9674 50.5037 19.1595 44.3331 16.9573 40.4765C14.9202 36.8403 12.4977 32.8735 12.0022 28.6312C11.782 26.8131 12.1123 24.9399 12.9382 23.3421C13.4337 22.4055 14.9753 20.1467 16.1865 20.0916Z" stroke="#364166" stroke-width="3" stroke-miterlimit="10" stroke-linecap="round" stroke-linejoin="round"/>
<path d="M45.9719 63.7814C49.7708 71.9904 56.4326 76.2327 65.3517 70.3376C68.7101 68.1338 74.6011 60.4757 69.0955 57.17C65.3517 54.9112 60.782 59.4289 61.8831 63.2304C63.2045 67.7481 72.1236 69.0704 75.8674 68.0787C82.6944 66.2606 82.0337 60.4757 82.8595 54.5255C83.5753 49.1814 85.1719 40.2561 92.3843 40.3112C95.6876 40.3663 98.9359 42.4048 96.073 45.6002" stroke="#364166" stroke-width="3" stroke-miterlimit="10" stroke-linecap="round" stroke-linejoin="round"/>
</g>
<defs>
<clipPath id="clip0_889_451">
<rect width="98" height="73" fill="white" transform="translate(0 0.918701)"/>
</clipPath>
</defs>
</svg>
